<?xml version="1.0" encoding="UTF-8" standalone="no"?>
<svg
   width="192"
   height="192"
   version="1"
   id="svg32">
  <path
     d="m 56.212,35.999431 c -19.9072,0 -34.8836,16.015597 -35.9296,35.851597 l -3.9932,75.688002 c -2.5192,14.8 11.8692,24.1488 23.9608,7.9688 l 20.9376,-31.3436 c 0.92156,0.0706 1.84112,0.14844 2.78124,0.14844 h 63.952 l 23.9764,32.1952 c 11.9904,16.0972 25.5084,2.84756 23.9844,-8.0468 l -3.94,-75.344002 c 0.016,-0.42 0.064,-0.836 0.064,-1.264 0,-19.86 -16.0256,-35.851597 -35.9296,-35.851597 h -79.86 z"
     style="opacity:0.2;stroke-width:10" />
  <path
     d="M 56.212,32 C 36.3036,32 21.3272,48.016 20.2812,67.852 l -3.992,75.688 c -2.5192,14.8 11.8692,24.148 23.9588,7.968 L 61.188,120 h 66.732 l 23.98,32.508 c 11.988,16.096 25.508,2.848 23.984,-8.048 L 171.936,69.116 C 171.952,68.696 172,68.28 172,67.852 172,47.992 155.976,32 136.072,32 Z"
     style="fill:cornflowerblue;stroke-width:4"/>
  <circle
     r="26"
     cy="72"
     cx="58"
     style="opacity:0.2;stroke-width:4" />
  <circle
     r="26"
     cy="70"
     cx="58"
     style="fill:#ffffff;stroke-width:4" />
  <path
     d="m 134.07812,54.000004 a 6,6 0 0 0 -6,6 6,6 0 0 0 6,6 6,6 0 0 0 6,-6 6,6 0 0 0 -6,-6 z m -12,12 a 6,6 0 0 0 -6,6 6,6 0 0 0 6,6 6,6 0 0 0 6,-6 6,6 0 0 0 -6,-6 z m 24,0 a 6,6 0 0 0 -6,6 6,6 0 0 0 6,6 6,6 0 0 0 6,-6 6,6 0 0 0 -6,-6 z m -12,12 a 6,6 0 0 0 -6,6 6,6 0 0 0 6,6 6,6 0 0 0 6,-6 6,6 0 0 0 -6,-6 z"
     style="opacity:0.1;stroke-width:4" />
  <g
     style="fill:#3f3f3f"
     transform="matrix(4,0,0,4,-0.08000183,0.27999878)">
    <rect
       ry="0"
       y="12.93"
       x="13.02"
       height="9"
       width="3"
       style="fill:darkblue" />
    <rect
       transform="rotate(90)"
       ry="0"
       y="-19.02"
       x="15.93"
       height="9"
       width="3"
       style="fill:darkblue" />
  </g>
  <circle
     r="6"
     cy="69.720001"
     cx="146.08"
     style="fill:darkorange;stroke-width:4" />
  <g
     style="fill:#3f3f3f"
     transform="scale(4)">
    <circle
       r="1.5"
       cy="17.43"
       cx="30.52"
       style="fill:firebrick" />
    <circle
       transform="rotate(90)"
       r="1.5"
       cy="-33.52"
       cx="14.43"
       style="fill:forestgreen" />
  </g>
  <circle
     transform="rotate(90)"
     r="6"
     cy="-134.08"
     cx="81.720001"
     style="fill:indigo;stroke-width:4" />
  <path
     style="opacity:0.2;fill:#ffffff;stroke-width:4"
     d="M 56.210938 32 C 36.30254 32 21.319837 48.427838 20.273438 68.773438 L 16.28125 146.41406 C 16.07412 147.66342 16.026147 148.85213 16.052734 150.00586 C 16.070513 149.16591 16.133378 148.30599 16.28125 147.41406 L 20.273438 69.773438 C 21.319837 49.427838 36.30254 33 56.210938 33 L 136.0625 33 C 155.76136 33 171.65123 49.058348 171.98438 69.132812 C 171.98944 69.012941 172 68.894436 172 68.773438 C 172 48.399837 155.9713 32 136.0625 32 L 56.210938 32 z "
     id="path28" />
</svg>
